<?xml version="1.0" standalone="no"?>
<!DOCTYPE svg PUBLIC "-//W3C//DTD SVG 20010904//EN"
 "http://www.w3.org/TR/2001/REC-SVG-20010904/DTD/svg10.dtd">
<svg version="1.0" xmlns="http://www.w3.org/2000/svg"
 width="2024.000000pt" height="2024.000000pt" viewBox="0 0 2024.000000 2024.000000"
 preserveAspectRatio="xMidYMid meet">

<g transform="translate(0.000000,2024.000000) scale(0.100000,-0.100000)"
fill="#000000" stroke="none">
<path d="M9640 17243 c-386 -31 -858 -141 -1300 -305 -357 -133 -537 -260
-650 -461 -167 -296 -114 -646 141 -930 28 -32 48 -61 44 -65 -11 -11 -385 -7
-445 6 -131 26 -405 110 -435 132 -5 4 -28 13 -50 20 -22 7 -44 16 -50 20 -5
4 -41 20 -80 35 -38 15 -94 38 -123 51 -29 13 -58 24 -65 24 -7 0 -17 4 -23 9
-12 13 -281 111 -303 111 -9 0 -21 4 -26 9 -12 10 -118 37 -225 56 -41 8 -106
20 -145 27 -91 17 -532 18 -566 1 -13 -6 -58 -16 -98 -23 -41 -6 -80 -15 -85
-19 -6 -5 -27 -12 -46 -16 -19 -4 -54 -16 -77 -26 -23 -11 -45 -19 -48 -19 -9
0 -119 -52 -125 -59 -3 -4 -18 -12 -33 -19 -78 -34 -244 -158 -337 -252 -56
-56 -140 -155 -140 -164 0 -4 -13 -24 -29 -44 -92 -117 -189 -372 -210 -553
-19 -161 -20 -181 -5 -304 13 -115 55 -278 75 -290 5 -4 9 -13 9 -20 0 -31 89
-161 160 -234 148 -153 292 -220 600 -282 30 -6 63 -15 73 -20 28 -15 54 -1
61 33 10 49 7 70 -11 91 -18 19 -38 96 -68 252 -53 281 35 469 272 584 120 59
203 75 368 75 135 -1 157 -3 220 -26 145 -52 227 -129 256 -238 6 -25 15 -136
20 -248 9 -218 23 -292 77 -402 33 -69 42 -80 122 -160 61 -62 132 -111 183
-125 12 -4 36 -13 52 -20 36 -16 223 -42 280 -39 22 1 141 10 265 19 332 27
413 13 507 -86 58 -62 79 -134 113 -397 6 -46 14 -90 17 -99 7 -18 -15 -13
-92 22 -63 30 -169 65 -193 65 -10 0 -22 4 -28 10 -12 12 -159 37 -307 52 -79
8 -141 8 -230 0 -137 -13 -292 -37 -322 -51 -11 -5 -49 -15 -85 -21 -36 -7
-69 -15 -75 -19 -5 -4 -35 -13 -65 -20 -30 -8 -59 -17 -65 -21 -5 -4 -28 -12
-50 -18 -44 -12 -149 -48 -180 -61 -11 -5 -42 -16 -70 -25 -27 -9 -81 -27
-120 -40 -38 -13 -90 -29 -115 -35 -25 -7 -54 -16 -65 -20 -39 -17 -202 -51
-315 -66 -153 -21 -288 -26 -380 -14 -245 31 -304 40 -390 58 -105 22 -222 49
-350 82 -147 37 -252 61 -350 80 -52 10 -115 23 -140 28 -25 5 -123 15 -217
21 -276 19 -512 -5 -733 -76 -116 -36 -185 -61 -206 -72 -10 -6 -63 -31 -116
-57 -165 -80 -336 -203 -465 -336 -80 -83 -100 -107 -173 -204 -16 -22 -33
-44 -38 -50 -19 -24 -130 -226 -156 -285 -16 -36 -32 -73 -37 -83 -11 -21 -61
-178 -83 -262 -19 -70 -42 -234 -51 -355 -5 -86 4 -220 25 -340 46 -273 195
-530 400 -689 36 -28 71 -56 79 -63 32 -27 229 -119 304 -142 111 -34 193 -46
311 -46 103 0 224 16 241 31 5 5 17 9 26 9 25 0 144 64 203 109 139 107 215
237 265 454 6 26 11 97 11 159 0 102 2 115 26 155 31 54 26 77 -16 71 -24 -4
-30 -1 -30 14 0 40 -42 15 -53 -33 -4 -17 -32 -44 -84 -81 -99 -71 -207 -137
-247 -151 -17 -5 -37 -15 -45 -21 -7 -5 -55 -12 -106 -14 -83 -4 -99 -2 -141
19 -58 29 -109 89 -143 166 -22 52 -25 72 -25 193 -1 116 2 144 23 203 59 173
161 274 343 339 54 20 83 23 203 23 147 0 183 -8 295 -65 146 -74 286 -232
393 -442 71 -140 89 -189 223 -603 30 -93 66 -188 88 -230 9 -17 16 -33 16
-37 0 -15 88 -158 131 -213 44 -57 134 -144 197 -192 40 -31 182 -103 202
-103 9 0 20 -4 25 -9 20 -20 184 -53 285 -58 152 -8 305 15 530 78 333 93 423
110 570 112 101 1 143 -3 220 -22 52 -13 99 -28 105 -32 5 -5 15 -9 22 -9 20
0 136 -56 209 -100 36 -22 68 -40 70 -40 3 0 10 -5 17 -10 7 -6 51 -39 98 -75
123 -91 319 -270 381 -347 l29 -37 -64 -64 c-120 -118 -270 -173 -442 -164
-144 8 -191 26 -554 213 -79 41 -151 74 -160 74 -10 0 -22 5 -27 10 -12 12
-119 37 -226 52 -64 10 -95 8 -185 -6 -315 -51 -548 -203 -882 -576 -186 -207
-313 -321 -416 -372 -237 -119 -493 -99 -637 50 -61 62 -88 116 -88 172 0 99
95 207 235 269 62 27 235 58 369 65 111 6 136 15 136 46 0 21 -16 35 -50 45
-61 16 -110 41 -110 54 0 22 -160 172 -237 222 -89 58 -101 64 -181 96 -62 25
-79 27 -217 27 -168 1 -222 -11 -360 -83 -73 -37 -215 -146 -250 -190 -11 -14
-27 -33 -36 -42 -61 -62 -159 -247 -197 -374 -35 -118 -62 -306 -62 -435 0
-226 61 -485 152 -643 16 -26 28 -51 28 -54 0 -24 144 -209 224 -285 153 -148
382 -268 572 -298 121 -20 401 -8 454 20 8 4 40 13 70 20 30 7 60 16 65 20 6
4 21 11 35 15 25 7 229 86 285 110 17 8 44 17 60 21 17 4 35 10 40 14 6 4 53
18 105 31 74 19 122 24 216 24 67 0 132 -5 145 -11 145 -65 198 -115 268 -254
27 -53 52 -107 56 -121 10 -34 98 -243 105 -249 3 -3 16 -27 30 -54 29 -58 74
-128 110 -171 36 -44 202 -207 230 -228 14 -9 39 -27 55 -40 45 -33 88 -62
105 -71 8 -4 33 -18 55 -31 32 -19 195 -102 266 -136 20 -9 130 -51 189 -72
88 -32 287 -76 345 -77 28 0 25 -3 -30 -34 -142 -81 -268 -217 -343 -370 -58
-117 -82 -174 -82 -190 0 -7 -6 -19 -14 -25 -8 -7 -17 -23 -20 -36 -7 -29 -79
-139 -120 -183 -41 -45 -140 -119 -196 -147 -89 -45 -276 -61 -409 -34 -88 17
-200 77 -269 143 -55 53 -131 165 -147 216 -4 14 -13 39 -20 55 -7 17 -25 71
-40 120 -41 137 -44 145 -71 145 -30 0 -33 -7 -43 -93 -5 -40 -13 -82 -18 -93
-6 -10 -21 -71 -33 -134 -41 -206 -30 -402 32 -585 23 -66 100 -227 126 -261
9 -12 24 -32 32 -44 62 -95 210 -241 308 -307 252 -167 555 -234 833 -183 241
45 431 131 727 329 62 42 121 81 130 86 9 6 49 31 87 56 39 25 84 54 100 63
17 9 50 28 75 42 25 14 77 39 115 55 39 17 79 34 90 39 43 20 133 50 195 65
36 9 81 21 100 26 66 19 443 22 575 5 175 -22 386 -63 595 -116 47 -11 108
-26 135 -32 35 -8 68 -26 110 -62 217 -180 582 -356 875 -421 41 -9 91 -20
110 -25 59 -15 247 -39 389 -50 465 -35 1039 32 1561 181 718 207 1503 615
2100 1093 608 487 1138 1098 1542 1779 32 54 58 100 58 101 0 1 26 49 58 107
116 208 272 545 352 760 17 46 36 95 42 109 29 68 125 375 168 535 102 381
159 714 202 1190 17 184 17 834 0 1025 -24 270 -58 527 -92 700 -10 52 -22
119 -26 149 -8 62 -17 64 101 -17 178 -122 325 -263 415 -397 132 -196 181
-322 309 -795 39 -140 47 -160 65 -160 7 0 16 -9 19 -21 8 -31 27 -13 27 25 0
62 31 272 57 381 73 314 253 647 462 856 111 111 277 242 329 260 18 6 35 22
42 39 18 44 18 122 -1 150 -9 14 -74 61 -145 105 -238 149 -338 238 -468 419
-140 196 -225 418 -246 644 -5 53 -14 120 -19 147 -5 28 -10 97 -11 155 0 108
-8 137 -32 127 -15 -5 -22 -29 -93 -317 -60 -244 -105 -380 -171 -519 -84
-177 -150 -268 -314 -431 -140 -141 -385 -349 -396 -337 -3 3 -16 45 -29 94
-81 311 -236 755 -353 1014 -11 24 -41 91 -67 149 -95 212 -239 487 -387 738
l-91 153 7 92 c21 280 113 534 289 796 83 123 244 280 422 410 33 24 62 46 65
48 2 2 0 7 -6 11 -6 4 -14 24 -18 44 -10 57 -52 91 -158 128 -232 83 -305 134
-404 281 -97 146 -136 259 -203 584 -23 109 -44 201 -46 204 -3 3 -14 -4 -24
-15 -13 -13 -26 -63 -45 -174 -53 -311 -102 -457 -200 -594 -82 -115 -181
-193 -396 -311 -128 -71 -137 -79 -150 -123 -15 -57 15 -97 164 -214 324 -254
419 -398 532 -807 18 -69 32 -126 30 -128 -2 -2 -29 33 -59 79 -114 170 -182
267 -285 403 -93 123 -225 291 -241 305 -4 3 -40 45 -81 95 -41 49 -149 166
-240 259 -673 690 -1371 1150 -2365 1560 -822 339 -1304 469 -1904 516 -124 9
-585 11 -691 3z m670 -393 c531 -40 1007 -168 1760 -477 363 -149 838 -386
1094 -546 42 -26 344 -229 387 -259 376 -270 818 -693 1142 -1096 556 -689
1032 -1524 1306 -2290 81 -226 185 -577 221 -742 71 -332 92 -448 119 -665 39
-315 46 -435 46 -810 0 -361 -7 -490 -41 -775 -109 -912 -444 -1816 -962
-2600 -134 -203 -347 -486 -471 -626 -421 -474 -764 -778 -1226 -1084 -541
-359 -1214 -655 -1780 -784 -820 -186 -1554 -146 -2088 112 -271 131 -504 326
-583 486 -34 70 -39 89 -39 150 0 89 28 151 100 221 60 58 132 97 230 125 98
28 100 27 71 -23 -106 -183 -55 -463 117 -639 101 -103 208 -159 370 -195 163
-36 579 -16 787 37 237 61 364 131 520 289 137 138 185 216 325 525 46 103
105 222 131 264 63 103 197 234 369 362 220 164 294 229 383 337 158 193 229
425 202 658 -21 187 -50 266 -219 605 -64 129 -130 273 -145 320 -51 155 -44
313 21 458 26 58 104 192 194 337 132 210 197 389 206 570 9 166 -19 289 -104
465 -58 120 -117 208 -260 388 -141 177 -235 315 -265 390 -19 46 -23 76 -23
157 0 91 3 106 32 167 40 85 113 183 243 321 205 222 289 342 333 482 59 187
32 399 -73 559 -80 123 -194 217 -440 361 -90 53 -191 116 -225 139 -188 135
-262 295 -236 515 15 128 47 249 136 517 145 432 178 583 178 809 1 113 -4
166 -17 215 -75 273 -266 445 -546 490 -36 5 -132 12 -215 15 -198 7 -240 12
-297 37 -116 50 -162 161 -203 488 -15 128 -51 285 -80 354 -105 250 -360 385
-623 332 -94 -19 -95 -19 -332 -131 -204 -97 -259 -115 -351 -115 -90 0 -157
25 -356 133 -193 105 -260 132 -364 148 -322 50 -613 -196 -644 -541 -4 -43
-2 -105 5 -144 6 -38 9 -71 6 -73 -8 -8 -133 157 -166 218 -76 144 -97 278
-61 396 67 223 219 320 736 469 625 181 1096 236 1665 194z m-1600 -811 c24
-5 67 -21 95 -35 78 -40 245 -148 242 -158 -3 -10 -64 -31 -115 -41 -41 -7
-123 -32 -252 -77 -47 -16 -107 -36 -135 -45 -27 -8 -54 -18 -60 -23 -5 -4
-23 -10 -40 -14 -16 -4 -45 -15 -63 -23 -18 -9 -35 -13 -39 -10 -13 14 15 195
38 241 47 96 119 158 209 182 56 16 65 16 120 3z m1640 -129 c78 -40 109 -118
140 -358 26 -195 44 -286 77 -382 55 -165 170 -310 298 -378 127 -68 190 -81
428 -92 240 -10 297 -20 360 -60 119 -75 146 -257 80 -543 -19 -82 -38 -103
-71 -74 -9 8 -73 47 -142 86 -173 101 -184 107 -280 170 -195 127 -344 271
-484 469 -48 70 -195 316 -217 367 -17 39 -84 154 -97 167 -6 6 -12 16 -12 21
0 5 -28 50 -62 100 -102 149 -265 302 -392 367 -16 8 -31 20 -33 26 -4 12 150
84 242 114 77 25 117 25 165 0z m5260 -255 c33 -103 110 -224 196 -306 69 -65
123 -103 219 -154 39 -20 71 -38 73 -40 1 -1 -32 -36 -74 -76 -139 -135 -250
-284 -315 -425 -43 -94 -100 -252 -119 -333 l-13 -55 -22 111 c-55 271 -120
387 -342 612 -79 79 -142 145 -141 146 274 184 409 328 490 522 24 58 29 58
48 -2z m-9830 -74 c105 -12 262 -40 282 -51 10 -6 24 -10 31 -10 17 0 194 -57
234 -75 17 -8 36 -15 43 -15 6 0 30 -9 53 -19 23 -10 71 -31 107 -45 36 -15
74 -31 85 -36 11 -4 40 -17 65 -28 25 -10 77 -32 115 -47 39 -15 84 -34 100
-41 17 -7 48 -18 70 -24 22 -7 45 -16 50 -20 6 -4 35 -13 65 -20 30 -7 62 -17
70 -21 25 -13 200 -49 290 -59 172 -20 499 -9 595 20 49 14 196 50 255 62 51
10 59 9 107 -16 61 -30 76 -32 98 -9 13 13 16 27 11 60 -4 30 -2 43 7 43 6 1
30 9 52 20 22 11 47 20 55 20 8 0 27 6 41 14 14 7 39 16 55 20 16 4 43 14 59
21 17 7 48 18 70 25 22 6 49 15 60 20 44 20 278 78 385 96 108 19 297 21 375
5 61 -13 191 -72 236 -107 35 -27 130 -124 157 -159 49 -65 112 -155 112 -160
0 -3 8 -18 19 -33 10 -15 35 -54 56 -87 20 -33 50 -79 66 -102 16 -23 29 -44
29 -48 0 -3 39 -59 87 -123 167 -226 390 -422 611 -539 l74 -38 -54 -2 c-84
-4 -412 -35 -421 -40 -4 -2 -53 -13 -110 -23 -142 -26 -360 -81 -429 -108 -25
-10 -29 -8 -46 21 -11 18 -26 46 -34 62 -118 241 -256 451 -385 589 -286 304
-602 432 -983 397 -73 -7 -151 -18 -174 -26 -22 -7 -57 -16 -76 -20 -19 -4
-46 -12 -60 -18 -14 -5 -65 -24 -115 -42 -49 -19 -121 -45 -160 -60 -259 -100
-477 -154 -615 -154 -69 0 -264 36 -340 63 -126 45 -293 146 -575 349 -103 74
-124 84 -132 61 -11 -32 309 -356 427 -434 12 -8 32 -22 44 -31 66 -51 237
-126 366 -161 75 -20 106 -23 275 -22 212 0 277 12 520 93 66 22 143 47 170
57 28 9 64 22 82 30 17 8 36 14 42 14 6 0 37 9 68 19 130 43 199 54 354 58
137 4 166 2 245 -17 228 -58 443 -208 629 -440 78 -96 295 -424 295 -444 0 -2
-17 -10 -37 -18 -217 -90 -305 -131 -493 -230 -41 -22 -81 -45 -89 -51 -15
-12 -48 -32 -71 -43 -16 -8 -211 -136 -246 -163 -12 -9 -32 -23 -44 -31 -13
-8 -31 -22 -39 -30 -9 -8 -28 -23 -42 -32 l-26 -16 -18 41 c-68 162 -127 266
-204 362 -198 247 -417 389 -726 470 -185 48 -482 45 -642 -7 -48 -15 -63 -24
-63 -39 0 -18 9 -19 128 -20 242 -1 452 -39 609 -110 24 -10 46 -19 51 -19 4
0 57 -28 118 -62 272 -156 453 -336 606 -603 53 -93 54 -87 -15 -146 -90 -78
-316 -304 -373 -374 -27 -33 -58 -69 -69 -80 -11 -11 -31 -35 -45 -52 l-25
-32 -41 32 c-53 41 -78 78 -104 152 -18 52 -22 95 -29 305 -4 140 -12 254 -18
265 -6 11 -13 37 -17 57 -19 107 -163 278 -283 336 -37 19 -75 38 -84 42 -9 5
-68 19 -130 31 -105 20 -131 21 -324 14 -273 -10 -277 -10 -365 5 -124 20
-188 74 -217 183 -8 29 -19 137 -24 242 -7 154 -14 206 -34 277 -42 145 -119
257 -244 354 -66 52 -183 114 -214 114 -9 0 -18 4 -21 9 -4 5 -39 14 -79 21
-39 6 -88 16 -108 21 -119 30 -415 -14 -579 -87 -239 -106 -391 -261 -468
-477 -22 -62 -26 -88 -26 -192 0 -130 13 -185 72 -317 36 -78 35 -79 -80 -5
-207 131 -328 350 -328 594 0 186 86 437 203 593 57 75 173 187 243 235 33 22
61 42 64 45 10 10 176 90 220 106 67 24 187 54 255 63 78 11 280 12 375 2z
m5843 -1658 c41 -5 47 -9 47 -30 0 -13 -31 -117 -70 -231 -103 -308 -122 -380
-145 -570 -27 -213 -4 -359 87 -541 45 -92 64 -117 152 -207 109 -109 164
-149 408 -294 87 -51 184 -114 215 -139 109 -88 155 -189 133 -294 -19 -95
-79 -178 -293 -410 -244 -263 -347 -474 -347 -707 0 -253 72 -404 379 -795
204 -260 268 -384 278 -540 9 -139 -39 -268 -186 -500 -168 -264 -227 -396
-256 -580 -42 -258 3 -441 210 -855 135 -267 160 -333 177 -451 14 -95 2 -173
-42 -266 -61 -131 -123 -192 -430 -424 l-95 -71 -230 6 c-236 6 -395 18 -500
36 -33 6 -98 17 -145 25 -134 23 -395 81 -413 92 -6 3 -34 12 -61 19 -49 12
-248 81 -351 122 -192 76 -499 231 -638 323 -32 22 -60 39 -63 39 -4 0 -213
146 -249 174 -101 79 -151 119 -155 126 -3 4 -32 30 -65 58 -131 110 -397 388
-464 485 -8 12 -20 27 -26 33 -5 6 -19 23 -30 39 -11 15 -29 39 -40 54 -11 14
-29 40 -41 56 -11 17 -36 53 -55 80 -39 56 -122 193 -166 275 -40 73 -122 237
-142 283 -50 112 -59 135 -80 189 -21 55 -45 122 -71 198 -91 268 -157 617
-181 955 -10 138 -5 549 6 599 3 12 14 89 25 171 38 287 107 565 205 820 14
39 33 89 42 112 8 24 19 45 24 49 5 3 9 12 9 19 0 12 116 256 150 315 5 8 29
50 54 94 25 43 46 80 46 82 0 3 72 109 156 229 177 255 423 519 704 758 70 60
256 198 350 261 47 31 92 61 100 67 8 5 25 15 37 22 12 7 59 34 104 60 90 52
400 207 414 207 5 0 27 9 49 19 67 32 165 71 177 71 6 0 25 6 42 14 55 24 163
58 365 115 147 42 407 98 681 147 47 8 87 17 90 20 3 3 19 3 36 -1 16 -3 51
-9 78 -12z m-4328 -1253 c93 -11 235 -38 260 -49 11 -5 58 -21 105 -36 47 -15
105 -36 130 -47 106 -47 250 -119 255 -128 4 -6 -7 -27 -22 -48 -27 -34 -41
-55 -83 -118 -8 -12 -32 -51 -53 -86 -21 -34 -46 -76 -56 -93 -10 -16 -39 -69
-65 -118 l-47 -87 -27 19 c-45 31 -237 121 -294 137 -115 33 -160 42 -276 55
-107 11 -136 11 -255 -5 -127 -16 -235 -41 -352 -80 -54 -18 -101 -36 -240
-90 -290 -113 -506 -162 -680 -153 -153 8 -258 31 -485 109 -448 153 -493 163
-765 163 -181 0 -227 -3 -335 -24 -119 -23 -149 -36 -131 -54 4 -4 80 -12 167
-18 407 -24 596 -68 939 -219 22 -9 67 -27 100 -40 33 -12 76 -29 95 -36 82
-32 170 -55 330 -84 59 -11 274 -11 325 -1 22 5 67 14 100 21 112 22 242 68
555 200 239 101 415 142 605 142 153 0 329 -32 433 -78 18 -7 37 -14 43 -14
14 0 99 -39 99 -46 0 -5 -42 -99 -61 -136 -4 -9 -24 -59 -44 -110 -20 -51 -49
-127 -65 -168 -16 -42 -33 -91 -36 -110 -4 -19 -12 -46 -19 -60 -7 -14 -18
-50 -24 -80 -18 -88 -23 -91 -73 -44 -103 98 -223 172 -354 220 -76 27 -87 28
-254 28 -167 0 -178 -1 -254 -28 -117 -43 -211 -95 -416 -231 -206 -137 -265
-171 -360 -206 -58 -21 -81 -24 -225 -24 -143 0 -167 3 -225 24 -77 28 -212
98 -278 144 -26 19 -78 55 -117 82 -38 27 -83 58 -100 69 -16 12 -36 27 -43
33 -16 16 -61 28 -69 19 -7 -7 34 -61 93 -125 24 -25 44 -49 44 -53 0 -4 44
-46 97 -94 195 -173 354 -253 547 -275 212 -24 391 21 621 154 51 30 180 111
185 117 3 3 28 19 55 34 28 16 57 35 65 42 27 23 174 92 235 110 43 13 93 18
180 18 129 0 196 -14 289 -61 90 -45 159 -94 255 -179 l35 -32 -18 -93 c-10
-52 -22 -123 -27 -159 -5 -36 -17 -117 -26 -180 -24 -158 -25 -826 -2 -967
l16 -93 -71 77 c-169 182 -293 291 -456 397 -168 111 -271 158 -465 215 -131
39 -403 46 -575 16 -134 -24 -235 -45 -255 -54 -51 -23 -304 -79 -410 -91
-134 -16 -278 9 -382 68 -63 35 -146 122 -191 199 -56 96 -75 143 -143 353
-63 193 -111 336 -119 355 -5 11 -21 49 -36 85 -34 85 -76 174 -84 180 -3 3
-12 20 -19 38 -8 17 -17 32 -22 32 -5 0 -9 5 -9 12 0 31 -126 194 -235 304
-159 160 -320 246 -554 295 -101 21 -239 25 -317 9 -132 -26 -189 -41 -198
-50 -5 -5 -16 -10 -24 -10 -21 0 -121 -49 -192 -95 -94 -61 -212 -181 -257
-262 -7 -13 -17 -31 -23 -40 -27 -51 -52 -115 -73 -187 -19 -70 -22 -105 -22
-256 1 -156 3 -183 25 -250 24 -78 58 -161 69 -170 3 -3 13 -18 21 -34 29 -57
183 -196 217 -196 5 0 20 -6 35 -14 83 -43 295 -47 383 -7 11 5 41 19 67 31
26 12 73 42 105 66 31 24 58 42 60 40 2 -1 -9 -25 -24 -52 -34 -61 -124 -152
-183 -185 -96 -54 -137 -64 -265 -63 -103 0 -131 4 -200 28 -298 101 -479 290
-557 580 -32 120 -32 389 1 531 40 173 55 217 134 385 132 283 355 516 619
647 158 78 169 83 353 137 98 29 225 39 425 33 185 -5 275 -16 460 -58 25 -6
76 -17 113 -25 38 -7 73 -16 77 -19 9 -5 46 -15 270 -67 47 -11 119 -26 160
-34 41 -7 93 -18 115 -24 55 -14 362 -47 461 -49 102 -2 375 32 502 64 138 34
214 54 237 64 11 5 56 21 100 36 44 15 94 34 110 41 17 7 84 33 150 59 66 25
139 55 163 65 23 11 47 20 53 20 6 0 25 6 42 14 32 15 134 49 232 79 53 16
247 54 305 60 68 7 226 6 295 -3z m10255 -317 c36 -107 92 -223 156 -319 74
-112 246 -285 376 -379 53 -38 97 -75 98 -81 0 -6 -20 -25 -44 -43 -81 -58
-256 -233 -325 -325 -140 -187 -213 -347 -265 -580 -13 -55 -25 -95 -28 -90
-3 5 -11 35 -18 67 -25 124 -85 275 -150 382 -104 170 -245 330 -405 458 -55
44 -101 85 -103 92 -1 6 21 31 50 55 96 81 379 364 429 430 72 95 141 233 194
388 7 21 12 14 35 -55z m-13930 -3374 c61 -9 183 -48 219 -69 11 -7 -3 -9 -47
-10 -162 0 -369 -91 -464 -202 -41 -48 -88 -115 -88 -126 0 -4 -7 -20 -15 -36
-22 -41 -35 -137 -29 -209 5 -62 50 -207 64 -207 4 0 10 -10 14 -22 4 -20 22
-43 94 -123 40 -44 149 -125 170 -125 6 0 12 -3 12 -8 0 -11 88 -49 153 -66
32 -8 61 -18 66 -21 5 -3 63 -8 128 -11 111 -6 139 -3 283 26 87 18 215 71
305 126 22 13 50 30 63 36 12 6 22 15 22 20 0 5 9 12 19 16 29 11 143 114 261
236 294 305 334 341 450 418 112 74 183 104 278 119 131 20 222 -1 437 -101
39 -18 97 -45 130 -61 293 -136 604 -161 810 -64 17 8 43 19 59 25 16 6 66 35
111 65 79 53 128 99 187 175 l27 35 36 -35 c34 -33 85 -124 85 -152 0 -17 87
-257 130 -358 18 -41 57 -127 88 -190 31 -63 56 -119 57 -123 0 -14 -72 -35
-167 -48 -96 -13 -357 -7 -418 10 -19 5 -62 17 -95 26 -33 9 -64 20 -70 25 -5
4 -21 11 -35 15 -25 7 -95 42 -400 196 -153 78 -262 129 -276 129 -3 0 -20 7
-37 14 -84 39 -236 80 -362 98 -123 17 -322 -10 -413 -58 -15 -7 -32 -14 -37
-14 -28 0 -274 -181 -363 -266 -13 -13 -49 -42 -80 -66 -31 -24 -59 -45 -62
-48 -15 -16 -220 -147 -320 -204 -135 -77 -165 -99 -156 -114 6 -11 110 8 151
28 11 5 40 14 65 21 25 6 50 14 55 19 6 4 28 13 50 20 70 23 302 147 335 180
3 3 28 21 55 40 28 19 55 38 60 43 80 65 222 151 306 185 143 58 383 43 556
-34 17 -8 34 -14 38 -14 14 0 159 -66 380 -175 249 -121 287 -139 325 -150 14
-4 30 -11 35 -15 18 -13 177 -59 250 -72 110 -19 353 -16 470 6 55 10 105 21
110 25 6 5 33 14 60 21 28 7 54 17 59 21 8 7 46 -30 46 -45 0 -12 181 -289
192 -294 4 -2 15 -19 24 -37 15 -32 14 -36 -10 -88 -69 -144 -165 -250 -277
-305 -177 -85 -424 -70 -629 40 -77 41 -91 50 -225 149 -114 84 -203 145 -270
186 -17 10 -92 48 -170 84 -29 14 -121 39 -195 54 -178 36 -216 38 -482 36
-99 -1 -108 -3 -108 -20 0 -21 18 -27 190 -61 239 -48 271 -56 419 -108 76
-27 211 -92 231 -112 3 -3 28 -21 56 -40 28 -20 73 -54 100 -77 27 -22 81 -66
119 -97 39 -31 75 -60 82 -66 7 -5 49 -35 94 -66 181 -123 353 -172 569 -161
149 8 308 66 400 147 14 12 37 32 52 45 44 37 127 153 160 222 30 64 30 64 46
41 17 -26 149 -176 196 -224 17 -17 43 -44 59 -60 l27 -30 -80 -117 c-328
-483 -652 -732 -1062 -817 -81 -17 -135 -21 -272 -20 -94 0 -189 5 -211 9
-199 43 -243 55 -369 104 -191 74 -427 214 -537 319 -66 63 -145 165 -176 228
-35 71 -73 158 -73 167 -1 4 -9 26 -20 48 -11 22 -19 43 -20 47 -1 20 -97 209
-133 262 -54 79 -167 193 -238 239 -60 39 -138 73 -229 103 -68 22 -303 31
-405 15 -96 -14 -216 -40 -240 -51 -11 -5 -39 -14 -62 -20 -23 -6 -54 -17 -70
-25 -15 -8 -35 -15 -44 -15 -8 0 -24 -7 -35 -15 -10 -8 -25 -15 -32 -15 -7 0
-31 -9 -55 -19 -63 -28 -163 -66 -247 -92 -99 -32 -304 -34 -390 -6 -155 52
-288 145 -389 272 -123 154 -192 336 -212 563 -16 163 12 385 61 489 11 24 20
45 20 47 0 21 85 141 134 191 150 150 311 206 506 174z m5224 -2374 c16 -11
38 -28 50 -37 97 -79 136 -108 142 -108 4 0 17 -9 28 -19 20 -18 139 -98 225
-150 30 -19 37 -28 30 -40 -12 -22 -59 -146 -59 -155 0 -5 -6 -22 -14 -39 -8
-18 -38 -86 -67 -152 -46 -103 -77 -162 -160 -304 -8 -14 -17 -30 -22 -35
-104 -143 -141 -189 -205 -254 -112 -113 -221 -198 -299 -233 -18 -7 -33 -17
-33 -21 0 -5 -5 -8 -10 -8 -6 0 -29 -9 -53 -19 -136 -63 -331 -107 -432 -97
-65 6 -316 40 -405 55 -30 5 -98 10 -150 10 -235 0 -412 -75 -581 -247 -92
-93 -141 -159 -213 -288 -96 -169 -73 -167 99 7 250 253 374 329 568 348 103
10 285 -13 462 -58 22 -5 95 -15 163 -21 281 -27 515 34 753 195 46 31 91 63
99 71 8 8 50 47 94 86 80 74 168 181 246 298 47 72 170 311 170 332 0 8 6 22
13 33 8 11 28 67 46 125 18 58 37 115 41 127 5 12 14 50 20 85 12 69 29 120
39 116 3 -2 71 -35 151 -75 80 -40 165 -81 190 -91 25 -10 70 -29 100 -42 30
-12 64 -27 75 -31 24 -11 122 -44 185 -64 150 -47 193 -59 265 -77 44 -11 92
-22 108 -25 32 -6 31 -5 12 -43 -23 -44 -52 -183 -64 -305 -12 -117 -37 -207
-78 -281 -26 -46 -144 -171 -243 -257 -50 -44 -53 -48 -38 -64 16 -15 25 -12
132 41 64 31 126 64 139 74 62 48 156 154 184 208 47 88 63 167 73 359 9 184
21 239 49 230 16 -5 163 -24 351 -46 47 -5 183 -11 303 -11 132 -1 217 -6 217
-12 0 -5 -6 -17 -14 -25 -24 -27 -109 -200 -181 -366 -38 -88 -89 -195 -113
-239 -52 -92 -149 -198 -230 -252 -31 -20 -68 -45 -82 -55 -119 -79 -598 -158
-795 -130 -155 22 -262 97 -327 229 -29 58 -33 77 -33 143 0 102 27 144 120
190 59 29 76 32 193 38 70 4 137 12 148 19 12 6 27 25 34 41 10 26 10 35 -7
63 -16 28 -29 35 -87 50 -180 45 -317 62 -501 62 -212 -1 -283 -16 -435 -91
-80 -39 -109 -60 -180 -132 -92 -93 -138 -171 -166 -283 -24 -94 -16 -240 21
-350 16 -49 26 -90 24 -93 -6 -5 -73 11 -104 25 -27 13 -123 38 -222 60 -45
10 -86 21 -91 24 -25 15 -302 41 -442 41 -169 0 -297 -14 -424 -46 -99 -25
-232 -68 -266 -86 -14 -7 -29 -13 -33 -13 -13 0 -172 -78 -262 -128 -77 -44
-365 -229 -375 -243 -8 -10 -200 -124 -250 -148 -224 -109 -429 -138 -625 -87
-159 41 -305 127 -421 249 -67 71 -124 136 -124 142 0 2 -18 33 -41 70 -22 37
-39 69 -37 71 2 2 15 -7 28 -19 69 -63 212 -137 313 -164 106 -27 247 -38 345
-26 90 11 199 36 229 52 10 6 47 24 83 41 36 18 67 35 70 39 3 3 31 23 62 44
73 50 183 165 241 253 24 38 77 134 117 214 119 236 187 305 353 358 126 41
239 29 502 -54 77 -24 147 -44 156 -44 8 0 19 -4 25 -9 10 -10 258 -50 309
-49 61 0 282 38 310 52 17 9 35 16 41 16 17 0 146 65 207 104 115 74 235 238
268 366 6 25 12 95 12 155 0 123 -20 197 -93 344 -92 185 -110 240 -110 337 0
44 4 84 8 90 5 5 14 29 21 54 7 25 20 53 28 62 15 17 18 16 47 -10 18 -15 45
-36 60 -47z m-365 -460 c5 -11 23 -63 41 -115 18 -52 37 -106 43 -119 7 -13
12 -58 12 -100 0 -59 -5 -86 -22 -122 -58 -115 -189 -193 -378 -224 -93 -15
-102 -14 -204 5 -58 11 -144 34 -191 51 -47 16 -101 35 -120 41 -19 5 -39 14
-45 18 -5 4 -34 13 -63 20 -30 7 -50 16 -45 20 4 4 37 17 73 29 315 108 609
325 825 609 l40 53 12 -73 c7 -40 17 -82 22 -93z"/>
<path d="M17393 9403 c-12 -18 -38 -82 -57 -141 -19 -59 -53 -165 -76 -237
-97 -302 -229 -493 -467 -677 -117 -91 -133 -109 -133 -156 0 -66 32 -101 178
-192 101 -63 160 -109 232 -180 89 -87 102 -105 153 -210 72 -147 107 -275
107 -392 0 -60 4 -91 14 -100 7 -8 16 -23 20 -33 7 -25 41 -46 59 -39 17 6 27
76 27 185 0 143 95 408 206 575 56 84 155 180 292 283 160 120 171 139 137
224 -4 9 -55 46 -114 81 -58 36 -122 76 -141 91 -139 103 -273 305 -352 533
-25 72 -32 112 -39 227 -5 77 -12 152 -16 166 l-8 26 -22 -34z m17 -608 c69
-210 169 -350 360 -507 45 -37 45 -37 23 -52 -63 -46 -141 -121 -202 -194 -66
-80 -157 -238 -181 -317 -18 -57 -26 -62 -40 -21 -33 100 -141 259 -234 343
-28 25 -83 68 -122 96 l-72 50 82 81 c45 44 106 113 134 151 60 80 159 276
194 382 13 39 26 68 29 65 4 -4 17 -38 29 -77z"/>
<path d="M15612 6103 c-5 -10 -12 -43 -16 -73 -8 -68 -58 -299 -86 -400 -68
-242 -203 -417 -443 -575 -195 -128 -196 -161 -8 -345 303 -296 381 -441 461
-855 39 -199 37 -193 62 -201 30 -9 46 13 59 81 16 91 86 345 120 438 35 96
84 188 144 272 50 70 189 211 260 265 28 21 74 60 104 87 47 42 54 53 54 88 2
64 -31 106 -125 161 -168 99 -287 213 -349 336 -69 137 -94 220 -149 493 -22
110 -45 210 -50 223 -11 26 -26 28 -38 5z m96 -850 c61 -123 153 -233 261
-313 33 -25 60 -49 61 -54 0 -5 -43 -53 -95 -107 -151 -158 -246 -317 -299
-499 -13 -47 -27 -78 -29 -70 -3 8 -17 53 -32 99 -50 161 -147 323 -285 480
-44 50 -80 94 -80 99 0 5 18 22 40 37 55 38 188 179 232 246 53 81 104 183
124 251 l18 59 26 -83 c15 -46 40 -111 58 -145z"/>
</g>
</svg>
